<mxfile host="app.diagrams.net" agent="Mozilla/5.0 (Windows NT 10.0; Win64; x64) AppleWebKit/537.36 (KHTML, like Gecko) Chrome/122.0.0.0 Safari/537.36" version="24.7.16">
  <diagram name="Page-1" id="18QPKGjvQZBAcF_XZ2AR">
    <mxGraphModel dx="2097" dy="2842" grid="1" gridSize="10" guides="1" tooltips="1" connect="1" arrows="1" fold="1" page="1" pageScale="1" pageWidth="850" pageHeight="1100" math="0" shadow="0">
      <root>
        <mxCell id="0" />
        <mxCell id="1" parent="0" />
        <mxCell id="izD9zCOAXTGJAPc0Cjla-2" value="Login" style="rounded=1;whiteSpace=wrap;html=1;" vertex="1" parent="1">
          <mxGeometry x="150" y="-1230" width="120" height="60" as="geometry" />
        </mxCell>
        <mxCell id="izD9zCOAXTGJAPc0Cjla-4" value="Login as athlete" style="rounded=1;whiteSpace=wrap;html=1;" vertex="1" parent="1">
          <mxGeometry x="380" y="-1330" width="120" height="60" as="geometry" />
        </mxCell>
        <mxCell id="izD9zCOAXTGJAPc0Cjla-5" value="Login as coach&amp;nbsp;" style="rounded=1;whiteSpace=wrap;html=1;" vertex="1" parent="1">
          <mxGeometry x="380" y="-1260" width="120" height="60" as="geometry" />
        </mxCell>
        <mxCell id="izD9zCOAXTGJAPc0Cjla-6" value="Login as full (coach and dietician)" style="rounded=1;whiteSpace=wrap;html=1;" vertex="1" parent="1">
          <mxGeometry x="380" y="-1190" width="120" height="60" as="geometry" />
        </mxCell>
        <mxCell id="izD9zCOAXTGJAPc0Cjla-7" value="Login as dietician" style="rounded=1;whiteSpace=wrap;html=1;" vertex="1" parent="1">
          <mxGeometry x="380" y="-1120" width="120" height="60" as="geometry" />
        </mxCell>
        <mxCell id="izD9zCOAXTGJAPc0Cjla-8" value="Login as admin" style="rounded=1;whiteSpace=wrap;html=1;" vertex="1" parent="1">
          <mxGeometry x="380" y="-1400" width="120" height="60" as="geometry" />
        </mxCell>
        <mxCell id="izD9zCOAXTGJAPc0Cjla-11" value="" style="endArrow=classic;html=1;rounded=0;entryX=0;entryY=0.5;entryDx=0;entryDy=0;" edge="1" parent="1" target="izD9zCOAXTGJAPc0Cjla-4">
          <mxGeometry width="50" height="50" relative="1" as="geometry">
            <mxPoint x="300" y="-1200" as="sourcePoint" />
            <mxPoint x="390" y="-1200" as="targetPoint" />
            <Array as="points">
              <mxPoint x="350" y="-1200" />
              <mxPoint x="350" y="-1300" />
            </Array>
          </mxGeometry>
        </mxCell>
        <mxCell id="izD9zCOAXTGJAPc0Cjla-12" value="" style="endArrow=classic;html=1;rounded=0;entryX=0;entryY=0.5;entryDx=0;entryDy=0;exitX=1;exitY=0.5;exitDx=0;exitDy=0;" edge="1" parent="1" source="izD9zCOAXTGJAPc0Cjla-2" target="izD9zCOAXTGJAPc0Cjla-5">
          <mxGeometry width="50" height="50" relative="1" as="geometry">
            <mxPoint x="330" y="-1220" as="sourcePoint" />
            <mxPoint x="390" y="-1180" as="targetPoint" />
            <Array as="points">
              <mxPoint x="350" y="-1200" />
              <mxPoint x="350" y="-1230" />
            </Array>
          </mxGeometry>
        </mxCell>
        <mxCell id="izD9zCOAXTGJAPc0Cjla-13" value="" style="endArrow=classic;html=1;rounded=0;entryX=0;entryY=0.5;entryDx=0;entryDy=0;exitX=1;exitY=0.5;exitDx=0;exitDy=0;" edge="1" parent="1" source="izD9zCOAXTGJAPc0Cjla-2" target="izD9zCOAXTGJAPc0Cjla-6">
          <mxGeometry width="50" height="50" relative="1" as="geometry">
            <mxPoint x="330" y="-1220" as="sourcePoint" />
            <mxPoint x="390" y="-1110" as="targetPoint" />
            <Array as="points">
              <mxPoint x="350" y="-1200" />
              <mxPoint x="350" y="-1160" />
            </Array>
          </mxGeometry>
        </mxCell>
        <mxCell id="izD9zCOAXTGJAPc0Cjla-14" value="" style="endArrow=classic;html=1;rounded=0;entryX=0;entryY=0.5;entryDx=0;entryDy=0;exitX=1;exitY=0.5;exitDx=0;exitDy=0;" edge="1" parent="1" source="izD9zCOAXTGJAPc0Cjla-2" target="izD9zCOAXTGJAPc0Cjla-7">
          <mxGeometry width="50" height="50" relative="1" as="geometry">
            <mxPoint x="330" y="-1220" as="sourcePoint" />
            <mxPoint x="390" y="-1040" as="targetPoint" />
            <Array as="points">
              <mxPoint x="350" y="-1200" />
              <mxPoint x="350" y="-1090" />
            </Array>
          </mxGeometry>
        </mxCell>
        <mxCell id="izD9zCOAXTGJAPc0Cjla-16" value="" style="endArrow=classic;html=1;rounded=0;entryX=0;entryY=0.5;entryDx=0;entryDy=0;exitX=1;exitY=0.5;exitDx=0;exitDy=0;" edge="1" parent="1" source="izD9zCOAXTGJAPc0Cjla-2" target="izD9zCOAXTGJAPc0Cjla-8">
          <mxGeometry width="50" height="50" relative="1" as="geometry">
            <mxPoint x="310" y="-1230" as="sourcePoint" />
            <mxPoint x="280" y="-1130" as="targetPoint" />
            <Array as="points">
              <mxPoint x="350" y="-1200" />
              <mxPoint x="350" y="-1370" />
            </Array>
          </mxGeometry>
        </mxCell>
        <mxCell id="izD9zCOAXTGJAPc0Cjla-17" value="Register" style="rounded=1;whiteSpace=wrap;html=1;" vertex="1" parent="1">
          <mxGeometry x="150" y="-1310" width="120" height="60" as="geometry" />
        </mxCell>
        <mxCell id="izD9zCOAXTGJAPc0Cjla-18" value="Starting page" style="rounded=1;whiteSpace=wrap;html=1;" vertex="1" parent="1">
          <mxGeometry x="-120" y="-1270" width="120" height="60" as="geometry" />
        </mxCell>
        <mxCell id="izD9zCOAXTGJAPc0Cjla-21" value="" style="endArrow=classic;html=1;rounded=0;exitX=1;exitY=0.5;exitDx=0;exitDy=0;entryX=0;entryY=0.25;entryDx=0;entryDy=0;" edge="1" parent="1" source="izD9zCOAXTGJAPc0Cjla-17" target="izD9zCOAXTGJAPc0Cjla-4">
          <mxGeometry width="50" height="50" relative="1" as="geometry">
            <mxPoint x="320" y="-1260" as="sourcePoint" />
            <mxPoint x="370" y="-1310" as="targetPoint" />
            <Array as="points">
              <mxPoint x="320" y="-1280" />
              <mxPoint x="320" y="-1315" />
            </Array>
          </mxGeometry>
        </mxCell>
        <mxCell id="izD9zCOAXTGJAPc0Cjla-22" value="Home page" style="rounded=1;whiteSpace=wrap;html=1;" vertex="1" parent="1">
          <mxGeometry x="580" y="-1260" width="120" height="60" as="geometry" />
        </mxCell>
        <mxCell id="izD9zCOAXTGJAPc0Cjla-23" value="" style="endArrow=classic;html=1;rounded=0;exitX=1;exitY=0.5;exitDx=0;exitDy=0;entryX=0;entryY=0.5;entryDx=0;entryDy=0;" edge="1" parent="1" source="izD9zCOAXTGJAPc0Cjla-8" target="izD9zCOAXTGJAPc0Cjla-22">
          <mxGeometry width="50" height="50" relative="1" as="geometry">
            <mxPoint x="560" y="-1280" as="sourcePoint" />
            <mxPoint x="610" y="-1330" as="targetPoint" />
            <Array as="points">
              <mxPoint x="540" y="-1370" />
              <mxPoint x="540" y="-1230" />
            </Array>
          </mxGeometry>
        </mxCell>
        <mxCell id="izD9zCOAXTGJAPc0Cjla-24" value="" style="endArrow=classic;html=1;rounded=0;exitX=1;exitY=0.5;exitDx=0;exitDy=0;entryX=0;entryY=0.5;entryDx=0;entryDy=0;" edge="1" parent="1" source="izD9zCOAXTGJAPc0Cjla-4" target="izD9zCOAXTGJAPc0Cjla-22">
          <mxGeometry width="50" height="50" relative="1" as="geometry">
            <mxPoint x="510" y="-1360" as="sourcePoint" />
            <mxPoint x="590" y="-1220" as="targetPoint" />
            <Array as="points">
              <mxPoint x="540" y="-1300" />
              <mxPoint x="540" y="-1230" />
            </Array>
          </mxGeometry>
        </mxCell>
        <mxCell id="izD9zCOAXTGJAPc0Cjla-25" value="" style="endArrow=classic;html=1;rounded=0;exitX=1;exitY=0.5;exitDx=0;exitDy=0;" edge="1" parent="1" source="izD9zCOAXTGJAPc0Cjla-5">
          <mxGeometry width="50" height="50" relative="1" as="geometry">
            <mxPoint x="510" y="-1290" as="sourcePoint" />
            <mxPoint x="580" y="-1230" as="targetPoint" />
            <Array as="points">
              <mxPoint x="540" y="-1230" />
            </Array>
          </mxGeometry>
        </mxCell>
        <mxCell id="izD9zCOAXTGJAPc0Cjla-26" value="" style="endArrow=classic;html=1;rounded=0;exitX=1;exitY=0.5;exitDx=0;exitDy=0;entryX=0;entryY=0.5;entryDx=0;entryDy=0;" edge="1" parent="1" source="izD9zCOAXTGJAPc0Cjla-6" target="izD9zCOAXTGJAPc0Cjla-22">
          <mxGeometry width="50" height="50" relative="1" as="geometry">
            <mxPoint x="580" y="-1110" as="sourcePoint" />
            <mxPoint x="630" y="-1160" as="targetPoint" />
            <Array as="points">
              <mxPoint x="540" y="-1160" />
              <mxPoint x="540" y="-1230" />
            </Array>
          </mxGeometry>
        </mxCell>
        <mxCell id="izD9zCOAXTGJAPc0Cjla-27" value="" style="endArrow=classic;html=1;rounded=0;exitX=1;exitY=0.5;exitDx=0;exitDy=0;entryX=0;entryY=0.5;entryDx=0;entryDy=0;" edge="1" parent="1" source="izD9zCOAXTGJAPc0Cjla-7" target="izD9zCOAXTGJAPc0Cjla-22">
          <mxGeometry width="50" height="50" relative="1" as="geometry">
            <mxPoint x="550" y="-1060" as="sourcePoint" />
            <mxPoint x="600" y="-1110" as="targetPoint" />
            <Array as="points">
              <mxPoint x="540" y="-1090" />
              <mxPoint x="540" y="-1230" />
            </Array>
          </mxGeometry>
        </mxCell>
        <mxCell id="izD9zCOAXTGJAPc0Cjla-29" value="" style="endArrow=classic;html=1;rounded=0;entryX=0;entryY=0.5;entryDx=0;entryDy=0;exitX=1;exitY=0.5;exitDx=0;exitDy=0;" edge="1" parent="1" source="izD9zCOAXTGJAPc0Cjla-18" target="izD9zCOAXTGJAPc0Cjla-17">
          <mxGeometry width="50" height="50" relative="1" as="geometry">
            <mxPoint x="110" y="-1220" as="sourcePoint" />
            <mxPoint x="160" y="-1270" as="targetPoint" />
            <Array as="points">
              <mxPoint x="90" y="-1240" />
              <mxPoint x="90" y="-1280" />
            </Array>
          </mxGeometry>
        </mxCell>
        <mxCell id="izD9zCOAXTGJAPc0Cjla-30" value="" style="endArrow=classic;html=1;rounded=0;entryX=0;entryY=0.5;entryDx=0;entryDy=0;exitX=1;exitY=0.5;exitDx=0;exitDy=0;" edge="1" parent="1" source="izD9zCOAXTGJAPc0Cjla-18" target="izD9zCOAXTGJAPc0Cjla-2">
          <mxGeometry width="50" height="50" relative="1" as="geometry">
            <mxPoint x="90" y="-1240" as="sourcePoint" />
            <mxPoint x="190" y="-1260" as="targetPoint" />
            <Array as="points">
              <mxPoint x="90" y="-1240" />
              <mxPoint x="90" y="-1200" />
            </Array>
          </mxGeometry>
        </mxCell>
        <mxCell id="izD9zCOAXTGJAPc0Cjla-31" value="Forgot password" style="rounded=1;whiteSpace=wrap;html=1;" vertex="1" parent="1">
          <mxGeometry x="210" y="-1120" width="120" height="60" as="geometry" />
        </mxCell>
        <mxCell id="izD9zCOAXTGJAPc0Cjla-33" value="Resend email confirmation" style="rounded=1;whiteSpace=wrap;html=1;" vertex="1" parent="1">
          <mxGeometry x="80" y="-1120" width="120" height="60" as="geometry" />
        </mxCell>
        <mxCell id="izD9zCOAXTGJAPc0Cjla-34" value="" style="endArrow=classic;html=1;rounded=0;entryX=0.5;entryY=1;entryDx=0;entryDy=0;exitX=0.5;exitY=0;exitDx=0;exitDy=0;" edge="1" parent="1" source="izD9zCOAXTGJAPc0Cjla-2" target="izD9zCOAXTGJAPc0Cjla-17">
          <mxGeometry width="50" height="50" relative="1" as="geometry">
            <mxPoint x="180" y="-1080" as="sourcePoint" />
            <mxPoint x="230" y="-1130" as="targetPoint" />
          </mxGeometry>
        </mxCell>
        <mxCell id="izD9zCOAXTGJAPc0Cjla-35" value="" style="endArrow=classic;html=1;rounded=0;exitX=0.5;exitY=1;exitDx=0;exitDy=0;entryX=0.5;entryY=0;entryDx=0;entryDy=0;" edge="1" parent="1" source="izD9zCOAXTGJAPc0Cjla-2" target="izD9zCOAXTGJAPc0Cjla-31">
          <mxGeometry width="50" height="50" relative="1" as="geometry">
            <mxPoint x="210" y="-1090" as="sourcePoint" />
            <mxPoint x="260" y="-1140" as="targetPoint" />
            <Array as="points">
              <mxPoint x="210" y="-1140" />
              <mxPoint x="270" y="-1140" />
            </Array>
          </mxGeometry>
        </mxCell>
        <mxCell id="izD9zCOAXTGJAPc0Cjla-36" value="" style="endArrow=classic;html=1;rounded=0;entryX=0.5;entryY=0;entryDx=0;entryDy=0;exitX=0.5;exitY=1;exitDx=0;exitDy=0;" edge="1" parent="1" source="izD9zCOAXTGJAPc0Cjla-2" target="izD9zCOAXTGJAPc0Cjla-33">
          <mxGeometry width="50" height="50" relative="1" as="geometry">
            <mxPoint x="240" y="-1170" as="sourcePoint" />
            <mxPoint x="210" y="-1160" as="targetPoint" />
            <Array as="points">
              <mxPoint x="210" y="-1140" />
              <mxPoint x="140" y="-1140" />
            </Array>
          </mxGeometry>
        </mxCell>
        <mxCell id="izD9zCOAXTGJAPc0Cjla-38" value="" style="endArrow=classic;html=1;rounded=0;exitX=0.5;exitY=1;exitDx=0;exitDy=0;entryX=0.5;entryY=0;entryDx=0;entryDy=0;" edge="1" parent="1" source="izD9zCOAXTGJAPc0Cjla-31" target="izD9zCOAXTGJAPc0Cjla-43">
          <mxGeometry width="50" height="50" relative="1" as="geometry">
            <mxPoint x="200" y="-1010" as="sourcePoint" />
            <mxPoint x="250" y="-1060" as="targetPoint" />
            <Array as="points">
              <mxPoint x="270" y="-1040" />
              <mxPoint x="210" y="-1040" />
            </Array>
          </mxGeometry>
        </mxCell>
        <mxCell id="izD9zCOAXTGJAPc0Cjla-39" value="" style="endArrow=classic;html=1;rounded=0;exitX=0.5;exitY=1;exitDx=0;exitDy=0;entryX=0.5;entryY=0;entryDx=0;entryDy=0;" edge="1" parent="1" source="izD9zCOAXTGJAPc0Cjla-33" target="izD9zCOAXTGJAPc0Cjla-43">
          <mxGeometry width="50" height="50" relative="1" as="geometry">
            <mxPoint x="70" y="-960" as="sourcePoint" />
            <mxPoint x="120" y="-1010" as="targetPoint" />
            <Array as="points">
              <mxPoint x="140" y="-1040" />
              <mxPoint x="210" y="-1040" />
            </Array>
          </mxGeometry>
        </mxCell>
        <mxCell id="izD9zCOAXTGJAPc0Cjla-40" value="" style="endArrow=classic;html=1;rounded=0;exitX=0;exitY=0.5;exitDx=0;exitDy=0;entryX=0.5;entryY=1;entryDx=0;entryDy=0;" edge="1" parent="1" source="izD9zCOAXTGJAPc0Cjla-37" target="izD9zCOAXTGJAPc0Cjla-18">
          <mxGeometry width="50" height="50" relative="1" as="geometry">
            <mxPoint x="10" y="-940" as="sourcePoint" />
            <mxPoint x="60" y="-990" as="targetPoint" />
            <Array as="points">
              <mxPoint x="-60" y="-930" />
            </Array>
          </mxGeometry>
        </mxCell>
        <mxCell id="izD9zCOAXTGJAPc0Cjla-41" value="Authentication diagram" style="swimlane;whiteSpace=wrap;html=1;" vertex="1" parent="1">
          <mxGeometry x="-160" y="-1460" width="900" height="590" as="geometry" />
        </mxCell>
        <mxCell id="izD9zCOAXTGJAPc0Cjla-43" value="Send adequate email" style="ellipse;whiteSpace=wrap;html=1;" vertex="1" parent="izD9zCOAXTGJAPc0Cjla-41">
          <mxGeometry x="300" y="440" width="140" height="40" as="geometry" />
        </mxCell>
        <mxCell id="izD9zCOAXTGJAPc0Cjla-37" value="Adequate confirmation screen" style="rounded=1;whiteSpace=wrap;html=1;" vertex="1" parent="izD9zCOAXTGJAPc0Cjla-41">
          <mxGeometry x="310" y="500" width="120" height="60" as="geometry" />
        </mxCell>
        <mxCell id="izD9zCOAXTGJAPc0Cjla-46" value="" style="endArrow=classic;html=1;rounded=0;exitX=0.5;exitY=1;exitDx=0;exitDy=0;entryX=0.5;entryY=0;entryDx=0;entryDy=0;" edge="1" parent="izD9zCOAXTGJAPc0Cjla-41" source="izD9zCOAXTGJAPc0Cjla-43" target="izD9zCOAXTGJAPc0Cjla-37">
          <mxGeometry width="50" height="50" relative="1" as="geometry">
            <mxPoint x="360" y="640" as="sourcePoint" />
            <mxPoint x="410" y="590" as="targetPoint" />
          </mxGeometry>
        </mxCell>
      </root>
    </mxGraphModel>
  </diagram>
</mxfile>
